<?xml version="1.0" encoding="us-ascii" standalone="no"?><svg xmlns="http://www.w3.org/2000/svg" xmlns:xlink="http://www.w3.org/1999/xlink" contentStyleType="text/css" height="382px" preserveAspectRatio="none" style="width:456px;height:382px;background:#FFFFFF;" version="1.1" viewBox="0 0 456 382" width="456px" zoomAndPan="magnify"><defs/><g><line style="stroke:#181818;stroke-width:0.5;stroke-dasharray:5.0,5.0;" x1="27" x2="27" y1="36.2969" y2="347.625"/><line style="stroke:#181818;stroke-width:0.5;stroke-dasharray:5.0,5.0;" x1="172" x2="172" y1="36.2969" y2="347.625"/><line style="stroke:#181818;stroke-width:0.5;stroke-dasharray:5.0,5.0;" x1="230" x2="230" y1="36.2969" y2="347.625"/><line style="stroke:#181818;stroke-width:0.5;stroke-dasharray:5.0,5.0;" x1="412.5" x2="412.5" y1="36.2969" y2="347.625"/><rect fill="#FFFCEB" height="30.2969" rx="2.5" ry="2.5" style="stroke:#181818;stroke-width:0.5;" width="45" x="5" y="5"/><text fill="#000000" font-family="sans-serif" font-size="14" lengthAdjust="spacing" textLength="31" x="12" y="24.9951">User</text><rect fill="#FFFCEB" height="30.2969" rx="2.5" ry="2.5" style="stroke:#181818;stroke-width:0.5;" width="45" x="5" y="346.625"/><text fill="#000000" font-family="sans-serif" font-size="14" lengthAdjust="spacing" textLength="31" x="12" y="366.6201">User</text><rect fill="#E8FDF5" height="30.2969" rx="2.5" ry="2.5" style="stroke:#181818;stroke-width:0.5;" width="31" x="157" y="5"/><text fill="#000000" font-family="sans-serif" font-size="14" lengthAdjust="spacing" textLength="17" x="164" y="24.9951">FE</text><rect fill="#E8FDF5" height="30.2969" rx="2.5" ry="2.5" style="stroke:#181818;stroke-width:0.5;" width="31" x="157" y="346.625"/><text fill="#000000" font-family="sans-serif" font-size="14" lengthAdjust="spacing" textLength="17" x="164" y="366.6201">FE</text><rect fill="#CDECFF" height="30.2969" rx="2.5" ry="2.5" style="stroke:#181818;stroke-width:0.5;" width="64" x="198" y="5"/><text fill="#000000" font-family="sans-serif" font-size="14" lengthAdjust="spacing" textLength="50" x="205" y="24.9951">GitHub</text><rect fill="#CDECFF" height="30.2969" rx="2.5" ry="2.5" style="stroke:#181818;stroke-width:0.5;" width="64" x="198" y="346.625"/><text fill="#000000" font-family="sans-serif" font-size="14" lengthAdjust="spacing" textLength="50" x="205" y="366.6201">GitHub</text><rect fill="#CDECFF" height="30.2969" rx="2.5" ry="2.5" style="stroke:#181818;stroke-width:0.5;" width="75" x="375.5" y="5"/><text fill="#000000" font-family="sans-serif" font-size="14" lengthAdjust="spacing" textLength="61" x="382.5" y="24.9951">Firebase</text><rect fill="#CDECFF" height="30.2969" rx="2.5" ry="2.5" style="stroke:#181818;stroke-width:0.5;" width="75" x="375.5" y="346.625"/><text fill="#000000" font-family="sans-serif" font-size="14" lengthAdjust="spacing" textLength="61" x="382.5" y="366.6201">Firebase</text><polygon fill="#181818" points="160.5,63.4297,170.5,67.4297,160.5,71.4297,164.5,67.4297" style="stroke:#181818;stroke-width:1.0;"/><line style="stroke:#181818;stroke-width:1.0;" x1="27.5" x2="166.5" y1="67.4297" y2="67.4297"/><text fill="#000000" font-family="sans-serif" font-size="13" lengthAdjust="spacing" textLength="121" x="34.5" y="62.3638">Click sign-in button</text><polygon fill="#181818" points="401,92.5625,411,96.5625,401,100.5625,405,96.5625" style="stroke:#181818;stroke-width:1.0;"/><line style="stroke:#181818;stroke-width:1.0;" x1="172.5" x2="407" y1="96.5625" y2="96.5625"/><text fill="#000000" font-family="sans-serif" font-size="13" lengthAdjust="spacing" textLength="167" x="179.5" y="91.4966">firebaseui.auth.ui.AuthUI()</text><polygon fill="#181818" points="401,121.6953,411,125.6953,401,129.6953,405,125.6953" style="stroke:#181818;stroke-width:1.0;"/><line style="stroke:#181818;stroke-width:1.0;" x1="172.5" x2="407" y1="125.6953" y2="125.6953"/><text fill="#000000" font-family="sans-serif" font-size="13" lengthAdjust="spacing" textLength="171" x="179.5" y="120.6294">authUI.start(signInOptions)</text><polygon fill="#181818" points="38.5,150.8281,28.5,154.8281,38.5,158.8281,34.5,154.8281" style="stroke:#181818;stroke-width:1.0;"/><line style="stroke:#181818;stroke-width:1.0;stroke-dasharray:2.0,2.0;" x1="32.5" x2="412" y1="154.8281" y2="154.8281"/><text fill="#000000" font-family="sans-serif" font-size="13" lengthAdjust="spacing" textLength="141" x="44.5" y="149.7622">Show GH login pop-up</text><polygon fill="#181818" points="218,179.9609,228,183.9609,218,187.9609,222,183.9609" style="stroke:#181818;stroke-width:1.0;"/><line style="stroke:#181818;stroke-width:1.0;" x1="27.5" x2="224" y1="183.9609" y2="183.9609"/><text fill="#000000" font-family="sans-serif" font-size="13" lengthAdjust="spacing" textLength="78" x="34.5" y="178.895">Log in at GH</text><polygon fill="#181818" points="38.5,209.0938,28.5,213.0938,38.5,217.0938,34.5,213.0938" style="stroke:#181818;stroke-width:1.0;"/><line style="stroke:#181818;stroke-width:1.0;stroke-dasharray:2.0,2.0;" x1="32.5" x2="229" y1="213.0938" y2="213.0938"/><text fill="#000000" font-family="sans-serif" font-size="13" lengthAdjust="spacing" textLength="162" x="44.5" y="208.0278">Option Authorize or Deny</text><polygon fill="#181818" points="218,238.2266,228,242.2266,218,246.2266,222,242.2266" style="stroke:#181818;stroke-width:1.0;"/><line style="stroke:#181818;stroke-width:1.0;" x1="27.5" x2="224" y1="242.2266" y2="242.2266"/><text fill="#000000" font-family="sans-serif" font-size="13" lengthAdjust="spacing" textLength="61" x="34.5" y="237.1606">Authorize</text><polygon fill="#181818" points="401,267.3594,411,271.3594,401,275.3594,405,271.3594" style="stroke:#181818;stroke-width:1.0;"/><line style="stroke:#181818;stroke-width:1.0;stroke-dasharray:2.0,2.0;" x1="230" x2="407" y1="271.3594" y2="271.3594"/><text fill="#000000" font-family="sans-serif" font-size="13" lengthAdjust="spacing" textLength="159" x="237" y="266.2935">Redirect, new Auth Code</text><polygon fill="#181818" points="183.5,296.4922,173.5,300.4922,183.5,304.4922,179.5,300.4922" style="stroke:#181818;stroke-width:1.0;"/><line style="stroke:#181818;stroke-width:1.0;stroke-dasharray:2.0,2.0;" x1="177.5" x2="412" y1="300.4922" y2="300.4922"/><text fill="#000000" font-family="sans-serif" font-size="13" lengthAdjust="spacing" textLength="182" x="189.5" y="295.4263">displayName, providerId, uid</text><polygon fill="#181818" points="38.5,325.625,28.5,329.625,38.5,333.625,34.5,329.625" style="stroke:#181818;stroke-width:1.0;"/><line style="stroke:#181818;stroke-width:1.0;stroke-dasharray:2.0,2.0;" x1="32.5" x2="171.5" y1="329.625" y2="329.625"/><text fill="#000000" font-family="sans-serif" font-size="13" lengthAdjust="spacing" textLength="41" x="44.5" y="324.5591">Status</text><!--SRC=[PP3TQeGm48NlynG3tko2UbSeNXHQDQjGMcZP1uWcTOVQ9EIdo_RfcxYYAvkR2PoPCzyPpOp37ZMJ3evM64WefMNzGlIDG6kONb8_qee-RBG3kiPta9HLNLAw7KCZEcR58f9fG_OK30ieH-o_mU8WCvJGUUUK965JbEV10hxcdyUSUNVAGtqEzTZkzdUzR19owmB2BlgsybqxLDBk2LbOiZ0JCGhuFAap71eOrH00jDAPrmlXDLO1hsg0eB8Gj25prjNYwWyHIHdy4w0CL49UxcoMZbkF5Vr3yF3lNGfIdATcA1KNM-fuD8vMZ-pondv42jgeN-J2j3m5Ztmwo9hECUVjFm00]--></g></svg>