<?xml version="1.0" encoding="us-ascii" standalone="no"?><svg xmlns="http://www.w3.org/2000/svg" xmlns:xlink="http://www.w3.org/1999/xlink" contentStyleType="text/css" height="588px" preserveAspectRatio="none" style="width:981px;height:588px;background:#FFFFFF;" version="1.1" viewBox="0 0 981 588" width="981px" zoomAndPan="magnify"><defs/><g><rect fill="none" height="191.9297" style="stroke:#000000;stroke-width:1.5;" width="790.5" x="185" y="286.3594"/><line style="stroke:#181818;stroke-width:0.5;stroke-dasharray:5.0,5.0;" x1="27" x2="27" y1="36.2969" y2="553.5547"/><line style="stroke:#181818;stroke-width:0.5;stroke-dasharray:5.0,5.0;" x1="233" x2="233" y1="36.2969" y2="553.5547"/><line style="stroke:#181818;stroke-width:0.5;stroke-dasharray:5.0,5.0;" x1="446.5" x2="446.5" y1="36.2969" y2="553.5547"/><line style="stroke:#181818;stroke-width:0.5;stroke-dasharray:5.0,5.0;" x1="541" x2="541" y1="36.2969" y2="553.5547"/><line style="stroke:#181818;stroke-width:0.5;stroke-dasharray:5.0,5.0;" x1="849.5" x2="849.5" y1="36.2969" y2="553.5547"/><line style="stroke:#181818;stroke-width:0.5;stroke-dasharray:5.0,5.0;" x1="927.5" x2="927.5" y1="36.2969" y2="553.5547"/><rect fill="#FFFCEB" height="30.2969" rx="2.5" ry="2.5" style="stroke:#181818;stroke-width:0.5;" width="45" x="5" y="5"/><text fill="#000000" font-family="sans-serif" font-size="14" lengthAdjust="spacing" textLength="31" x="12" y="24.9951">User</text><rect fill="#FFFCEB" height="30.2969" rx="2.5" ry="2.5" style="stroke:#181818;stroke-width:0.5;" width="45" x="5" y="552.5547"/><text fill="#000000" font-family="sans-serif" font-size="14" lengthAdjust="spacing" textLength="31" x="12" y="572.5498">User</text><rect fill="#E8FDF5" height="30.2969" rx="2.5" ry="2.5" style="stroke:#181818;stroke-width:0.5;" width="77" x="195" y="5"/><text fill="#000000" font-family="sans-serif" font-size="14" lengthAdjust="spacing" textLength="63" x="202" y="24.9951">Postman</text><rect fill="#E8FDF5" height="30.2969" rx="2.5" ry="2.5" style="stroke:#181818;stroke-width:0.5;" width="77" x="195" y="552.5547"/><text fill="#000000" font-family="sans-serif" font-size="14" lengthAdjust="spacing" textLength="63" x="202" y="572.5498">Postman</text><rect fill="#CDECFF" height="30.2969" rx="2.5" ry="2.5" style="stroke:#181818;stroke-width:0.5;" width="64" x="414.5" y="5"/><text fill="#000000" font-family="sans-serif" font-size="14" lengthAdjust="spacing" textLength="50" x="421.5" y="24.9951">GitHub</text><rect fill="#CDECFF" height="30.2969" rx="2.5" ry="2.5" style="stroke:#181818;stroke-width:0.5;" width="64" x="414.5" y="552.5547"/><text fill="#000000" font-family="sans-serif" font-size="14" lengthAdjust="spacing" textLength="50" x="421.5" y="572.5498">GitHub</text><rect fill="#E8FDF5" height="30.2969" rx="2.5" ry="2.5" style="stroke:#181818;stroke-width:0.5;" width="33" x="525" y="5"/><text fill="#000000" font-family="sans-serif" font-size="14" lengthAdjust="spacing" textLength="19" x="532" y="24.9951">BE</text><rect fill="#E8FDF5" height="30.2969" rx="2.5" ry="2.5" style="stroke:#181818;stroke-width:0.5;" width="33" x="525" y="552.5547"/><text fill="#000000" font-family="sans-serif" font-size="14" lengthAdjust="spacing" textLength="19" x="532" y="572.5498">BE</text><rect fill="#E8FDF5" height="30.2969" rx="2.5" ry="2.5" style="stroke:#181818;stroke-width:0.5;" width="62" x="818.5" y="5"/><text fill="#000000" font-family="sans-serif" font-size="14" lengthAdjust="spacing" textLength="48" x="825.5" y="24.9951">Mongo</text><rect fill="#E8FDF5" height="30.2969" rx="2.5" ry="2.5" style="stroke:#181818;stroke-width:0.5;" width="62" x="818.5" y="552.5547"/><text fill="#000000" font-family="sans-serif" font-size="14" lengthAdjust="spacing" textLength="48" x="825.5" y="572.5498">Mongo</text><rect fill="#CDECFF" height="30.2969" rx="2.5" ry="2.5" style="stroke:#181818;stroke-width:0.5;" width="75" x="890.5" y="5"/><text fill="#000000" font-family="sans-serif" font-size="14" lengthAdjust="spacing" textLength="61" x="897.5" y="24.9951">Firebase</text><rect fill="#CDECFF" height="30.2969" rx="2.5" ry="2.5" style="stroke:#181818;stroke-width:0.5;" width="75" x="890.5" y="552.5547"/><text fill="#000000" font-family="sans-serif" font-size="14" lengthAdjust="spacing" textLength="61" x="897.5" y="572.5498">Firebase</text><polygon fill="#181818" points="221.5,63.4297,231.5,67.4297,221.5,71.4297,225.5,67.4297" style="stroke:#181818;stroke-width:1.0;"/><line style="stroke:#181818;stroke-width:1.0;" x1="27.5" x2="227.5" y1="67.4297" y2="67.4297"/><text fill="#000000" font-family="sans-serif" font-size="13" lengthAdjust="spacing" textLength="161" x="34.5" y="62.3638">Obtain new access token</text><polygon fill="#181818" points="38.5,92.5625,28.5,96.5625,38.5,100.5625,34.5,96.5625" style="stroke:#181818;stroke-width:1.0;"/><line style="stroke:#181818;stroke-width:1.0;stroke-dasharray:2.0,2.0;" x1="32.5" x2="232.5" y1="96.5625" y2="96.5625"/><text fill="#000000" font-family="sans-serif" font-size="13" lengthAdjust="spacing" textLength="141" x="44.5" y="91.4966">Show GH login pop-up</text><polygon fill="#181818" points="434.5,121.6953,444.5,125.6953,434.5,129.6953,438.5,125.6953" style="stroke:#181818;stroke-width:1.0;"/><line style="stroke:#181818;stroke-width:1.0;" x1="27.5" x2="440.5" y1="125.6953" y2="125.6953"/><text fill="#000000" font-family="sans-serif" font-size="13" lengthAdjust="spacing" textLength="78" x="34.5" y="120.6294">Log in at GH</text><polygon fill="#181818" points="38.5,150.8281,28.5,154.8281,38.5,158.8281,34.5,154.8281" style="stroke:#181818;stroke-width:1.0;"/><line style="stroke:#181818;stroke-width:1.0;stroke-dasharray:2.0,2.0;" x1="32.5" x2="445.5" y1="154.8281" y2="154.8281"/><text fill="#000000" font-family="sans-serif" font-size="13" lengthAdjust="spacing" textLength="162" x="44.5" y="149.7622">Option Authorize or Deny</text><polygon fill="#181818" points="434.5,179.9609,444.5,183.9609,434.5,187.9609,438.5,183.9609" style="stroke:#181818;stroke-width:1.0;"/><line style="stroke:#181818;stroke-width:1.0;" x1="27.5" x2="440.5" y1="183.9609" y2="183.9609"/><text fill="#000000" font-family="sans-serif" font-size="13" lengthAdjust="spacing" textLength="61" x="34.5" y="178.895">Authorize</text><polygon fill="#181818" points="244.5,209.0938,234.5,213.0938,244.5,217.0938,240.5,213.0938" style="stroke:#181818;stroke-width:1.0;"/><line style="stroke:#181818;stroke-width:1.0;stroke-dasharray:2.0,2.0;" x1="238.5" x2="445.5" y1="213.0938" y2="213.0938"/><text fill="#000000" font-family="sans-serif" font-size="13" lengthAdjust="spacing" textLength="159" x="250.5" y="208.0278">Redirect, new Auth Code</text><polygon fill="#181818" points="434.5,238.2266,444.5,242.2266,434.5,246.2266,438.5,242.2266" style="stroke:#181818;stroke-width:1.0;"/><line style="stroke:#181818;stroke-width:1.0;" x1="233.5" x2="440.5" y1="242.2266" y2="242.2266"/><text fill="#000000" font-family="sans-serif" font-size="13" lengthAdjust="spacing" textLength="179" x="240.5" y="237.1606">Auth Code, Client ID+Secret</text><polygon fill="#181818" points="244.5,267.3594,234.5,271.3594,244.5,275.3594,240.5,271.3594" style="stroke:#181818;stroke-width:1.0;"/><line style="stroke:#181818;stroke-width:1.0;stroke-dasharray:2.0,2.0;" x1="238.5" x2="445.5" y1="271.3594" y2="271.3594"/><text fill="#000000" font-family="sans-serif" font-size="13" lengthAdjust="spacing" textLength="189" x="250.5" y="266.2935">Access Token, Refresh Token</text><path d="M185,286.3594 L333,286.3594 L333,293.4922 L323,303.4922 L185,303.4922 L185,286.3594 " fill="#EEEEEE" style="stroke:#000000;stroke-width:1.5;"/><rect fill="none" height="191.9297" style="stroke:#000000;stroke-width:1.5;" width="790.5" x="185" y="286.3594"/><text fill="#000000" font-family="sans-serif" font-size="13" font-weight="bold" lengthAdjust="spacing" textLength="103" x="200" y="299.4263">Start Session</text><polygon fill="#181818" points="529.5,320.625,539.5,324.625,529.5,328.625,533.5,324.625" style="stroke:#181818;stroke-width:1.0;"/><line style="stroke:#181818;stroke-width:1.0;" x1="233.5" x2="535.5" y1="324.625" y2="324.625"/><text fill="#000000" font-family="sans-serif" font-size="13" lengthAdjust="spacing" textLength="284" x="240.5" y="319.5591">/api/auth/signin (authProvider, accessToken)</text><polygon fill="#181818" points="916,349.7578,926,353.7578,916,357.7578,920,353.7578" style="stroke:#181818;stroke-width:1.0;"/><line style="stroke:#181818;stroke-width:1.0;" x1="541.5" x2="922" y1="353.7578" y2="353.7578"/><text fill="#000000" font-family="sans-serif" font-size="13" lengthAdjust="spacing" textLength="285" x="548.5" y="348.6919">GithubAuthProvider.credential(accessToken)</text><polygon fill="#181818" points="916,378.8906,926,382.8906,916,386.8906,920,382.8906" style="stroke:#181818;stroke-width:1.0;"/><line style="stroke:#181818;stroke-width:1.0;" x1="541.5" x2="922" y1="382.8906" y2="382.8906"/><text fill="#000000" font-family="sans-serif" font-size="13" lengthAdjust="spacing" textLength="154" x="548.5" y="377.8247">getAuth(firebaseConfig)</text><polygon fill="#181818" points="916,408.0234,926,412.0234,916,416.0234,920,412.0234" style="stroke:#181818;stroke-width:1.0;"/><line style="stroke:#181818;stroke-width:1.0;" x1="541.5" x2="922" y1="412.0234" y2="412.0234"/><text fill="#000000" font-family="sans-serif" font-size="13" lengthAdjust="spacing" textLength="206" x="548.5" y="406.9575">signInWithCredential(auth, cred)</text><polygon fill="#181818" points="552.5,437.1563,542.5,441.1563,552.5,445.1563,548.5,441.1563" style="stroke:#181818;stroke-width:1.0;"/><line style="stroke:#181818;stroke-width:1.0;stroke-dasharray:2.0,2.0;" x1="546.5" x2="927" y1="441.1563" y2="441.1563"/><text fill="#000000" font-family="sans-serif" font-size="13" lengthAdjust="spacing" textLength="29" x="558.5" y="436.0903">User</text><polygon fill="#181818" points="837.5,466.2891,847.5,470.2891,837.5,474.2891,841.5,470.2891" style="stroke:#181818;stroke-width:1.0;"/><line style="stroke:#181818;stroke-width:1.0;" x1="541.5" x2="843.5" y1="470.2891" y2="470.2891"/><text fill="#000000" font-family="sans-serif" font-size="13" lengthAdjust="spacing" textLength="284" x="548.5" y="465.2231">Insert session (displayName, providerId, uid)</text><polygon fill="#181818" points="244.5,502.4219,234.5,506.4219,244.5,510.4219,240.5,506.4219" style="stroke:#181818;stroke-width:1.0;"/><line style="stroke:#181818;stroke-width:1.0;stroke-dasharray:2.0,2.0;" x1="238.5" x2="540.5" y1="506.4219" y2="506.4219"/><text fill="#000000" font-family="sans-serif" font-size="13" lengthAdjust="spacing" textLength="182" x="250.5" y="501.356">displayName, providerId, uid</text><polygon fill="#181818" points="38.5,531.5547,28.5,535.5547,38.5,539.5547,34.5,535.5547" style="stroke:#181818;stroke-width:1.0;"/><line style="stroke:#181818;stroke-width:1.0;stroke-dasharray:2.0,2.0;" x1="32.5" x2="232.5" y1="535.5547" y2="535.5547"/><text fill="#000000" font-family="sans-serif" font-size="13" lengthAdjust="spacing" textLength="182" x="44.5" y="530.4888">displayName, providerId, uid</text><!--SRC=[XLBBRi8m4BpdArRYaggXd2fLELI2F02fBLLfrRD9biGgs9Rj5D6lxpe98QX0VRDtPdPsreffopEkcB3mOL3384tJA9bugbTubSPkcO3w39A7D4xlJm1JRcVL2WPHd4HfUbAQ99Tfpr8Kyd8vvHfNp62dwzKEXuy7Go4iLfPn0G9tmB8CZG4hlr1u1yT30ZjI2CjIxc0wWuqiYA2a6bQgqslyX_0a2w0geubcNZlKKMAXB9S2nfKjfUO_2593Z6B_HwP3z3Kwps-Oqs2P3MhR3WkHpF7e-LIeBWOGRJXI9lFuTecPHdjMUjnayEuo2AZHMgCfcwjNQ5afM5eA69Q4eb4ybtolxIG9OSGK7p7gEpAy41I6xowlMdxp77NGnbnBtjHyMZ1H3xiAdVUoMerxf3locvDvpZR-l_G2hUFww_ObacBDY_DOvt0kFgbXrEj0x01SouRK_Q9XEw7RLa-k_eGXp0KzMp1DCk3dtAWDsx-mBOMlsadcUG0L9s4KkUVe_V2lCSvyo6lmNm00]--></g></svg>