<?xml version="1.0" encoding="us-ascii" standalone="no"?><svg xmlns="http://www.w3.org/2000/svg" xmlns:xlink="http://www.w3.org/1999/xlink" contentStyleType="text/css" height="647px" preserveAspectRatio="none" style="width:596px;height:647px;background:#FFFFFF;" version="1.1" viewBox="0 0 596 647" width="596px" zoomAndPan="magnify"><defs/><g><rect fill="none" height="250.1953" style="stroke:#000000;stroke-width:1.5;" width="580.5" x="10" y="286.3594"/><line style="stroke:#181818;stroke-width:0.5;stroke-dasharray:5.0,5.0;" x1="57" x2="57" y1="36.2969" y2="611.8203"/><line style="stroke:#181818;stroke-width:0.5;stroke-dasharray:5.0,5.0;" x1="282" x2="282" y1="36.2969" y2="611.8203"/><line style="stroke:#181818;stroke-width:0.5;stroke-dasharray:5.0,5.0;" x1="495.5" x2="495.5" y1="36.2969" y2="611.8203"/><line style="stroke:#181818;stroke-width:0.5;stroke-dasharray:5.0,5.0;" x1="563.5" x2="563.5" y1="36.2969" y2="611.8203"/><rect fill="#FFFCEB" height="30.2969" rx="2.5" ry="2.5" style="stroke:#181818;stroke-width:0.5;" width="75" x="20" y="5"/><text fill="#000000" font-family="sans-serif" font-size="14" lengthAdjust="spacing" textLength="61" x="27" y="24.9951">NewUser</text><rect fill="#FFFCEB" height="30.2969" rx="2.5" ry="2.5" style="stroke:#181818;stroke-width:0.5;" width="75" x="20" y="610.8203"/><text fill="#000000" font-family="sans-serif" font-size="14" lengthAdjust="spacing" textLength="61" x="27" y="630.8154">NewUser</text><rect fill="#E8FDF5" height="30.2969" rx="2.5" ry="2.5" style="stroke:#181818;stroke-width:0.5;" width="31" x="267" y="5"/><text fill="#000000" font-family="sans-serif" font-size="14" lengthAdjust="spacing" textLength="17" x="274" y="24.9951">FE</text><rect fill="#E8FDF5" height="30.2969" rx="2.5" ry="2.5" style="stroke:#181818;stroke-width:0.5;" width="31" x="267" y="610.8203"/><text fill="#000000" font-family="sans-serif" font-size="14" lengthAdjust="spacing" textLength="17" x="274" y="630.8154">FE</text><rect fill="#CDECFF" height="30.2969" rx="2.5" ry="2.5" style="stroke:#181818;stroke-width:0.5;" width="84" x="453.5" y="5"/><text fill="#000000" font-family="sans-serif" font-size="14" lengthAdjust="spacing" textLength="70" x="460.5" y="24.9951">Facebook</text><rect fill="#CDECFF" height="30.2969" rx="2.5" ry="2.5" style="stroke:#181818;stroke-width:0.5;" width="84" x="453.5" y="610.8203"/><text fill="#000000" font-family="sans-serif" font-size="14" lengthAdjust="spacing" textLength="70" x="460.5" y="630.8154">Facebook</text><rect fill="#E8FDF5" height="30.2969" rx="2.5" ry="2.5" style="stroke:#181818;stroke-width:0.5;" width="33" x="547.5" y="5"/><text fill="#000000" font-family="sans-serif" font-size="14" lengthAdjust="spacing" textLength="19" x="554.5" y="24.9951">BE</text><rect fill="#E8FDF5" height="30.2969" rx="2.5" ry="2.5" style="stroke:#181818;stroke-width:0.5;" width="33" x="547.5" y="610.8203"/><text fill="#000000" font-family="sans-serif" font-size="14" lengthAdjust="spacing" textLength="19" x="554.5" y="630.8154">BE</text><polygon fill="#181818" points="270.5,63.4297,280.5,67.4297,270.5,71.4297,274.5,67.4297" style="stroke:#181818;stroke-width:1.0;"/><line style="stroke:#181818;stroke-width:1.0;" x1="57.5" x2="276.5" y1="67.4297" y2="67.4297"/><text fill="#000000" font-family="sans-serif" font-size="13" lengthAdjust="spacing" textLength="123" x="64.5" y="62.3638">Sign-up with OAuth</text><polygon fill="#181818" points="68.5,92.5625,58.5,96.5625,68.5,100.5625,64.5,96.5625" style="stroke:#181818;stroke-width:1.0;"/><line style="stroke:#181818;stroke-width:1.0;stroke-dasharray:2.0,2.0;" x1="62.5" x2="281.5" y1="96.5625" y2="96.5625"/><text fill="#000000" font-family="sans-serif" font-size="13" lengthAdjust="spacing" textLength="161" x="74.5" y="91.4966">Facebook Auth Code Link</text><polygon fill="#181818" points="483.5,121.6953,493.5,125.6953,483.5,129.6953,487.5,125.6953" style="stroke:#181818;stroke-width:1.0;"/><line style="stroke:#181818;stroke-width:1.0;" x1="57.5" x2="489.5" y1="125.6953" y2="125.6953"/><text fill="#000000" font-family="sans-serif" font-size="13" lengthAdjust="spacing" textLength="120" x="64.5" y="120.6294">Log in at Facebook</text><polygon fill="#181818" points="68.5,150.8281,58.5,154.8281,68.5,158.8281,64.5,154.8281" style="stroke:#181818;stroke-width:1.0;"/><line style="stroke:#181818;stroke-width:1.0;stroke-dasharray:2.0,2.0;" x1="62.5" x2="494.5" y1="154.8281" y2="154.8281"/><text fill="#000000" font-family="sans-serif" font-size="13" lengthAdjust="spacing" textLength="162" x="74.5" y="149.7622">Option Authorize or Deny</text><polygon fill="#181818" points="483.5,179.9609,493.5,183.9609,483.5,187.9609,487.5,183.9609" style="stroke:#181818;stroke-width:1.0;"/><line style="stroke:#181818;stroke-width:1.0;" x1="57.5" x2="489.5" y1="183.9609" y2="183.9609"/><text fill="#000000" font-family="sans-serif" font-size="13" lengthAdjust="spacing" textLength="61" x="64.5" y="178.895">Authorize</text><polygon fill="#181818" points="293.5,209.0938,283.5,213.0938,293.5,217.0938,289.5,213.0938" style="stroke:#181818;stroke-width:1.0;"/><line style="stroke:#181818;stroke-width:1.0;stroke-dasharray:2.0,2.0;" x1="287.5" x2="494.5" y1="213.0938" y2="213.0938"/><text fill="#000000" font-family="sans-serif" font-size="13" lengthAdjust="spacing" textLength="159" x="299.5" y="208.0278">Redirect, new Auth Code</text><polygon fill="#181818" points="483.5,238.2266,493.5,242.2266,483.5,246.2266,487.5,242.2266" style="stroke:#181818;stroke-width:1.0;"/><line style="stroke:#181818;stroke-width:1.0;" x1="282.5" x2="489.5" y1="242.2266" y2="242.2266"/><text fill="#000000" font-family="sans-serif" font-size="13" lengthAdjust="spacing" textLength="179" x="289.5" y="237.1606">Auth Code, Client ID+Secret</text><polygon fill="#181818" points="293.5,267.3594,283.5,271.3594,293.5,275.3594,289.5,271.3594" style="stroke:#181818;stroke-width:1.0;"/><line style="stroke:#181818;stroke-width:1.0;stroke-dasharray:2.0,2.0;" x1="287.5" x2="494.5" y1="271.3594" y2="271.3594"/><text fill="#000000" font-family="sans-serif" font-size="13" lengthAdjust="spacing" textLength="189" x="299.5" y="266.2935">Access Token, Refresh Token</text><path d="M10,286.3594 L225,286.3594 L225,293.4922 L215,303.4922 L10,303.4922 L10,286.3594 " fill="#EEEEEE" style="stroke:#000000;stroke-width:1.5;"/><rect fill="none" height="250.1953" style="stroke:#000000;stroke-width:1.5;" width="580.5" x="10" y="286.3594"/><text fill="#000000" font-family="sans-serif" font-size="13" font-weight="bold" lengthAdjust="spacing" textLength="170" x="25" y="299.4263">New Account Creation</text><polygon fill="#181818" points="552,320.625,562,324.625,552,328.625,556,324.625" style="stroke:#181818;stroke-width:1.0;"/><line style="stroke:#181818;stroke-width:1.0;" x1="282.5" x2="558" y1="324.625" y2="324.625"/><text fill="#000000" font-family="sans-serif" font-size="13" lengthAdjust="spacing" textLength="212" x="289.5" y="319.5591">Access Token, Begin Registration</text><polygon fill="#181818" points="483.5,349.7578,493.5,353.7578,483.5,357.7578,487.5,353.7578" style="stroke:#181818;stroke-width:1.0;"/><line style="stroke:#181818;stroke-width:1.0;" x1="282.5" x2="489.5" y1="353.7578" y2="353.7578"/><text fill="#000000" font-family="sans-serif" font-size="13" lengthAdjust="spacing" textLength="88" x="289.5" y="348.6919">Access Token</text><polygon fill="#181818" points="293.5,378.8906,283.5,382.8906,293.5,386.8906,289.5,382.8906" style="stroke:#181818;stroke-width:1.0;"/><line style="stroke:#181818;stroke-width:1.0;stroke-dasharray:2.0,2.0;" x1="287.5" x2="494.5" y1="382.8906" y2="382.8906"/><text fill="#000000" font-family="sans-serif" font-size="13" lengthAdjust="spacing" textLength="35" x="299.5" y="377.8247">Email</text><polygon fill="#181818" points="552,408.0234,562,412.0234,552,416.0234,556,412.0234" style="stroke:#181818;stroke-width:1.0;"/><line style="stroke:#181818;stroke-width:1.0;" x1="282.5" x2="558" y1="412.0234" y2="412.0234"/><text fill="#000000" font-family="sans-serif" font-size="13" lengthAdjust="spacing" textLength="35" x="289.5" y="406.9575">Email</text><polygon fill="#181818" points="293.5,437.1563,283.5,441.1563,293.5,445.1563,289.5,441.1563" style="stroke:#181818;stroke-width:1.0;"/><line style="stroke:#181818;stroke-width:1.0;stroke-dasharray:2.0,2.0;" x1="287.5" x2="563" y1="441.1563" y2="441.1563"/><text fill="#000000" font-family="sans-serif" font-size="13" lengthAdjust="spacing" textLength="106" x="299.5" y="436.0903">Email, New UUID</text><polygon fill="#181818" points="68.5,466.2891,58.5,470.2891,68.5,474.2891,64.5,470.2891" style="stroke:#181818;stroke-width:1.0;"/><line style="stroke:#181818;stroke-width:1.0;stroke-dasharray:2.0,2.0;" x1="62.5" x2="281.5" y1="470.2891" y2="470.2891"/><text fill="#000000" font-family="sans-serif" font-size="13" lengthAdjust="spacing" textLength="201" x="74.5" y="465.2231">Show New Account UUID, Email</text><polygon fill="#181818" points="270.5,495.4219,280.5,499.4219,270.5,503.4219,274.5,499.4219" style="stroke:#181818;stroke-width:1.0;"/><line style="stroke:#181818;stroke-width:1.0;" x1="57.5" x2="276.5" y1="499.4219" y2="499.4219"/><text fill="#000000" font-family="sans-serif" font-size="13" lengthAdjust="spacing" textLength="169" x="64.5" y="494.356">Confirm Fields UUID, Email</text><polygon fill="#181818" points="552,524.5547,562,528.5547,552,532.5547,556,528.5547" style="stroke:#181818;stroke-width:1.0;"/><line style="stroke:#181818;stroke-width:1.0;" x1="282.5" x2="558" y1="528.5547" y2="528.5547"/><text fill="#000000" font-family="sans-serif" font-size="13" lengthAdjust="spacing" textLength="117" x="289.5" y="523.4888">Finish Registration</text><polygon fill="#181818" points="293.5,560.6875,283.5,564.6875,293.5,568.6875,289.5,564.6875" style="stroke:#181818;stroke-width:1.0;"/><line style="stroke:#181818;stroke-width:1.0;stroke-dasharray:2.0,2.0;" x1="287.5" x2="563" y1="564.6875" y2="564.6875"/><text fill="#000000" font-family="sans-serif" font-size="13" lengthAdjust="spacing" textLength="41" x="299.5" y="559.6216">Status</text><polygon fill="#181818" points="68.5,589.8203,58.5,593.8203,68.5,597.8203,64.5,593.8203" style="stroke:#181818;stroke-width:1.0;"/><line style="stroke:#181818;stroke-width:1.0;stroke-dasharray:2.0,2.0;" x1="62.5" x2="281.5" y1="593.8203" y2="593.8203"/><text fill="#000000" font-family="sans-serif" font-size="13" lengthAdjust="spacing" textLength="41" x="74.5" y="588.7544">Status</text><!--SRC=[RPB1YeCm48RlFiL0ZskF2wM7XHeD54eBTVi0sJZLeMqYIKHsdtwZTglHzI2O-UVx_nbJ2-D8KYsKWoEs5ui6LfnpbYLHFQdn3FfdbMruoj_3cf3ufVKDLYpD6ET1CPar_fciFpnp2pcLQjtKq9AhuBHhN1LvgxMlFeNR4TzLWUa2uK3g5f2UaYqST0caG8ofebT_G3tLZhJgcThG3u8saABw_X_xaeMqRe8p5cHGkXWKjcF6Vemveg_4mEw4VZNxz2r7QT0jeJifqLhur3TKiRUu6hJLy1cLHlk57JipANNZGSoWwAQ9kaKFlia2ac3f5tFsR-lCN3w9EMaQ1FDisKFGVMOrdYLPA8pxf9VBFdsrJ7z3NkascALJnXFUxBumhQva7i09xuLTgCT4d1JvbGNpeYgYIRxS2TVOnNqRZdy1]--></g></svg>